<?xml version="1.0" encoding="UTF-8"?>
<svg id="Layer_2" data-name="Layer 2" xmlns="http://www.w3.org/2000/svg" viewBox="0 0 2000 2000">
  <defs>
    <style>
      .cls-1 {
        fill: #e79243;
      }

      .cls-2 {
        font-family: Cairo-Black, Cairo;
        font-size: 298.46px;
        font-weight: 800;
      }

      .cls-2, .cls-3 {
        fill: #fff;
      }

      .cls-3 {
        font-family: Cairo-SemiBold, Cairo;
        font-size: 208.52px;
        font-weight: 600;
      }

      .cls-4 {
        fill: #e35533;
      }

      .cls-5 {
        fill: #ebb457;
      }
    </style>
  </defs>
  <path class="cls-4" d="M1797.92,1098.05c-37.13,18.82-66.95,29.54-78.38,33.5-3.08,1.06-14.87,5.13-31.4,9.93-12.6,3.65-50.55,14.32-105.33,22.73-42.89,6.6-75.13,8.59-114.1,11-31.02,1.89-56.58,2.56-67.03,2.78-15.53.33-28.98.41-39.65.38,8.95-1.34,21.39-3.3,36.17-5.98,17.82-3.25,47.77-8.76,85.58-18.9,39.1-10.5,68.13-21,76.42-24.03,16.59-6.08,44.53-16.4,78.39-33.26,21.61-10.75,60.84-30.5,105.8-65.35,25.4-19.69,57.32-47.83,89.52-86.29v-.02c-3.95-93.64-23.27-183.31-55.52-266.53-6.05,13.47-14.33,30.33-25.45,49.08-6.63,11.19-18.2,30.55-36.67,53.42-14.79,18.3-27.29,30.51-41.25,44.15-4.64,4.51-9.5,9.28-14.89,14.3-7.97,7.44-17.08,15.47-28.27,24.3-17.03,13.45-30.67,22.26-43.78,30.67-12.25,7.88-32.3,20.68-59.62,34.49-20.74,10.5-54.78,27.48-101.96,40.08-23.14,6.17-42.95,9.57-57.3,11.54,10.25-3.88,24.88-9.77,41.99-17.9,16.01-7.59,62.47-30.59,115.92-73.34,14.71-11.76,38.98-31.34,66.54-61.46,56.78-62.04,85.83-123.45,98.73-154.41,10.81-25.97,23.62-62.59,32.01-108.25-17.51-30.58-36.89-59.94-58-87.94-21.11-28-43.92-54.62-68.29-79.74-.3,4.74-.73,9.71-1.36,14.92-.52,4.45-1.15,8.71-1.85,12.79,0,0-3.73,28.94-12.53,59.86-16.32,57.4-46.16,109.21-46.16,109.21-15.25,24.15-29.82,43.74-41.66,58.58-28.98,36.32-54.53,60.24-61.63,66.79-11.4,10.55-26.73,24.6-49.3,40.41-21.8,15.3-40.07,25.01-50.26,30.4-17.03,8.98-32.22,15.77-44.37,20.77,15.19-10.53,34.92-25.4,56.29-45.15,47.37-43.74,78.92-89.35,99.22-125,39.95-70.14,53.33-131.44,59.12-159.14,2.87-13.7,10.64-52.44,12.99-103.45,1.01-21.83.79-40.43.28-54.46v-.02c-142.87-113.23-323.54-180.85-519.98-180.85h-1.8c-191.19,0-367.42,64.03-508.41,171.85-5.26,68.26,2.15,124.46,10.07,163.07,7.55,36.78,25.01,117.69,80.56,196.66,29.55,42.02,64.25,75.65,75.44,86.41,18.22,17.51,34.6,31.23,46.98,41.03-11.57-4.36-27.07-10.81-44.64-20.03-8.95-4.7-45.24-24.17-89.07-63.52-62.89-56.47-96.47-113.57-103.27-125.39,0,0-29.84-51.79-46.17-109.21-8.79-30.93-12.52-59.86-12.52-59.86-.58-4.06-1.07-8.3-1.44-12.74-.66-7.78-.9-15.15-.84-21.97-48.84,48.98-91.65,103.98-127.22,163.8,4.88,26.82,14.49,69.48,34.41,118.27,19.92,48.81,50.17,103.79,96.33,155.29,74.35,82.99,162.33,126.07,190.16,139.39,17.27,8.27,32.06,14.37,42.58,18.47-17.1-2.6-38.99-6.77-63.98-13.72-18.49-5.15-57.11-16.94-102.88-40.18-13.7-6.95-57.13-29.69-104.11-68.05-7.83-6.41-15.03-12.64-21.37-18.31-9.5-8.51-17.06-15.74-21.8-20.3-17.05-16.37-28.54-27.4-42.07-44.04-12.6-15.5-20.6-28.13-36.58-53.4-12.61-19.97-22.84-37.4-30.56-51.01-32.63,83.32-52.28,173.14-56.5,267.01,24.12,26.41,55.93,57.18,96.37,87.65,21.49,16.2,59.17,42.62,110.11,68.04,61.98,30.94,113.55,45.4,150.47,55.74,39.37,11.05,59.04,16.58,85.14,20.52,7.29,1.11,22.68,3.25,22.57,4.45-.08.98-10.61.87-25.16.55-31.65-.68-47.45-1.03-67.15-2.27-17.46-1.09-39.69-2.48-67.8-5.71-38.34-4.42-87.71-10.09-146.95-28.13-24.03-7.31-44.77-15.17-58.24-20.27-21.31-8.05-36.61-13.91-55.99-23.51-18.55-9.17-33.51-18.15-44.23-25.07v244.18h633c6.96-33.67,22.84-95.81,58.33-155.83,1.94-3.28,3.92-6.52,5.92-9.71,22.31-35.58,47.25-64.49,50.64-68.4,5.56-6.41,16.72-18.83,30.94-33.25,0,0,13.23-13.4,24.97-24.18,1.18-1.09,2.45-2.21,3.77-3.35-72.71,10.78-130.87-7.09-156.73-16.76-47.45-17.73-80.87-43.25-100.54-60.84,11.29-40.59,22.57-81.17,33.86-121.76,5.26,3.99,96.96,71.67,186.1,32.31,45.87-20.25,68.23-58.76,78.36-77.32-7.86,1.1-15.9,1.66-24.06,1.66-96.36,0-174.47-78.11-174.47-174.47s78.11-174.45,174.47-174.45c65.31,0,122.25,35.9,152.15,89.05,41.12-7.69,82.25-15.34,123.39-23.02,11.02,51.53,22.23,141.11-7.1,244.17-13.62,47.9-36.47,124.49-106.73,190.9,42.01-13.31,66.13-16.05,79.22-16.84,5.79-.35,22.57-1.09,43.51-.85,12.52.14,23.05.6,30.69,1.03-.21,53.52-.41,107.03-.62,160.55-34.08-1.45-87.96,1.06-147.05,25.42-47.61,19.64-78.71,45.24-88.73,53.86-2.89,2.48-5.65,4.94-8.33,7.44-30.59,28.23-48.13,55.71-58.69,72.59-19.87,31.71-29,57.45-31.46,64.64-2.42,7.02-4.17,13.04-5.37,17.43h877.92v-240.46c-14.4,8.48-26.98,15.15-36.75,20.13Z"/>
  <path class="cls-1" d="M1411.72,962.15c-17.13,8.13-31.75,14.02-42.01,17.9,14.37-1.97,34.18-5.37,57.32-11.54,47.19-12.6,81.2-29.58,101.96-40.08,27.33-13.81,47.37-26.62,59.62-34.49,13.1-8.41,26.74-17.22,43.78-30.67,11.19-8.82,20.29-16.86,28.27-24.3-129.37,183.89-351.73,309.87-607.86,324.75,2.68-2.49,5.45-4.96,8.32-7.44,10.04-8.62,41.14-34.22,88.75-53.86,59.09-24.36,112.95-26.87,147.05-25.42.16-44.91.35-89.81.5-134.72.03-8.6.06-17.22.09-25.83-7.62-.43-18.17-.88-30.67-1.03-20.93-.24-37.71.51-43.52.85-13.07.79-37.19,3.54-79.2,16.84,70.26-66.41,93.11-143.01,106.73-190.9,29.32-103.05,18.12-192.64,7.1-244.17-41.14,7.67-82.26,15.33-123.4,23.02-29.88-53.15-86.84-89.05-152.13-89.05-96.36,0-174.47,78.11-174.47,174.45s78.11,174.47,174.47,174.47c8.16,0,16.2-.55,24.06-1.66-10.13,18.56-32.49,57.07-78.36,77.32-89.14,39.35-180.85-28.32-186.1-32.31-11.22,40.38-22.46,80.78-33.7,121.16-.05.21-.09.39-.16.6,19.67,17.59,53.09,43.11,100.54,60.84,25.86,9.68,84.01,27.55,156.73,16.76-1.33,1.14-2.59,2.26-3.77,3.35-11.74,10.78-24.97,24.18-24.97,24.18-14.22,14.41-25.38,26.84-30.94,33.25-3.39,3.92-28.34,32.82-50.64,68.4-213.19-36.43-395.57-150.84-508.87-308.89,6.35,5.67,13.54,11.9,21.37,18.31,46.98,38.36,90.41,61.11,104.11,68.05,45.76,23.24,84.39,35.03,102.88,40.18,24.99,6.95,46.89,11.11,63.98,13.72-10.51-4.1-25.31-10.2-42.58-18.47-27.83-13.32-115.81-56.4-190.16-139.39-46.16-51.49-76.41-106.48-96.33-155.29-19.92-48.8-29.54-91.45-34.41-118.27,33.04-55.57,72.33-106.97,116.91-153.27,3.39-3.54,6.84-7.06,10.31-10.53-.06,6.82.17,14.19.84,21.97.36,4.44.85,8.68,1.44,12.74,0,0,3.73,28.94,12.52,59.86,16.34,57.41,46.17,109.21,46.17,109.21,6.8,11.82,40.38,68.92,103.27,125.39,43.82,39.35,80.12,58.82,89.07,63.52,17.57,9.22,33.07,15.68,44.64,20.03-12.38-9.8-28.76-23.52-46.98-41.03-11.19-10.77-45.89-44.39-75.44-86.41-55.55-78.98-73.01-159.88-80.56-196.66-7.92-38.61-15.33-94.81-10.07-163.07,140.99-107.82,317.22-171.85,508.41-171.85h1.8c196.44,0,377.12,67.61,519.98,180.85v.02c.51,14.03.71,32.63-.28,54.46-2.35,51.01-10.12,89.74-12.99,103.45-5.79,27.7-19.18,89-59.12,159.14-20.3,35.65-51.84,81.25-99.22,125-21.37,19.75-41.11,34.62-56.29,45.15,12.16-5,27.33-11.79,44.36-20.77,10.2-5.4,28.48-15.11,50.28-30.4,22.57-15.82,37.9-29.87,49.3-40.41,7.1-6.55,32.63-30.47,61.63-66.79,11.84-14.84,26.41-34.43,41.64-58.58,0,0,29.85-51.81,46.16-109.21,8.82-30.93,12.55-59.86,12.55-59.86.69-4.07,1.33-8.34,1.85-12.79.62-5.21,1.06-10.18,1.34-14.92,3.19,3.28,6.36,6.6,9.49,9.95,20.85,22.16,40.48,45.45,58.8,69.79,21.12,28,40.51,57.37,58,87.94-8.38,45.65-21.18,82.28-32,108.25-12.9,30.96-41.94,92.37-98.73,154.41-27.56,30.12-51.83,49.69-66.55,61.46-53.44,42.75-99.9,65.75-115.9,73.34Z"/>
  <path class="cls-5" d="M1608.13,411.73c0,227.81-125.28,426.39-310.7,530.56.03-8.6.06-17.22.09-25.83-7.62-.43-18.17-.88-30.67-1.03-20.93-.24-37.71.51-43.52.85-13.07.79-37.19,3.54-79.2,16.84,70.26-66.41,93.11-143.01,106.73-190.9,29.32-103.05,18.12-192.64,7.1-244.17-41.14,7.67-82.26,15.33-123.4,23.02-29.88-53.15-86.84-89.05-152.13-89.05-96.36,0-174.47,78.11-174.47,174.45s78.11,174.47,174.47,174.47c8.16,0,16.2-.55,24.06-1.66-10.13,18.56-32.49,57.07-78.36,77.32-89.14,39.35-180.85-28.32-186.1-32.31-11.22,40.38-22.46,80.78-33.7,121.16-188.58-103.26-316.45-303.57-316.45-533.73,0-4.07.05-8.15.14-12.2,3.39-3.54,6.84-7.06,10.31-10.53-.06,6.82.17,14.19.84,21.97.36,4.44.85,8.68,1.44,12.74,0,0,3.73,28.94,12.52,59.86,16.34,57.41,46.17,109.21,46.17,109.21,6.8,11.82,40.38,68.92,103.27,125.39,43.82,39.35,80.12,58.82,89.07,63.52,17.57,9.22,33.07,15.68,44.64,20.03-12.38-9.8-28.76-23.52-46.98-41.03-11.19-10.77-45.89-44.39-75.44-86.41-55.55-78.98-73.01-159.88-80.56-196.66-7.92-38.61-15.33-94.81-10.07-163.07,140.99-107.82,317.22-171.85,508.41-171.85h1.8c196.44,0,377.12,67.61,519.98,180.85v.02c.51,14.03.71,32.63-.28,54.46-2.35,51.01-10.12,89.74-12.99,103.45-5.79,27.7-19.18,89-59.12,159.14-20.3,35.65-51.84,81.25-99.22,125-21.37,19.75-41.11,34.62-56.29,45.15,12.16-5,27.33-11.79,44.36-20.77,10.2-5.4,28.48-15.11,50.28-30.4,22.57-15.82,37.9-29.87,49.3-40.41,7.1-6.55,32.63-30.47,61.63-66.79,11.84-14.84,26.41-34.43,41.64-58.58,0,0,29.85-51.81,46.16-109.21,8.82-30.93,12.55-59.86,12.55-59.86.69-4.07,1.33-8.34,1.85-12.79.62-5.21,1.06-10.18,1.34-14.92,3.19,3.28,6.36,6.6,9.49,9.95.03,1.58.03,3.17.03,4.77Z"/>
  <text class="cls-2" transform="translate(167.78 1566.91)"><tspan x="0" y="0">ALMASHREQ</tspan></text>
  <text class="cls-3" transform="translate(165.33 1789.5)"><tspan x="0" y="0">UNITED COMPANY</tspan></text>
</svg>